<svg xmlns:dc="http://purl.org/dc/elements/1.1/" xmlns:cc="http://creativecommons.org/ns#" xmlns:rdf="http://www.w3.org/1999/02/22-rdf-syntax-ns#" xmlns:svg="http://www.w3.org/2000/svg" xmlns="http://www.w3.org/2000/svg" xmlns:sodipodi="http://sodipodi.sourceforge.net/DTD/sodipodi-0.dtd" xmlns:inkscape="http://www.inkscape.org/namespaces/inkscape" version="1.1" x="0px" y="0px" viewBox="0 0 100 125"><g transform="translate(0,-952.36218)"><path style="font-size:medium;font-style:normal;font-variant:normal;font-weight:normal;font-stretch:normal;text-indent:0;text-align:start;text-decoration:none;line-height:normal;letter-spacing:normal;word-spacing:normal;text-transform:none;direction:ltr;block-progression:tb;writing-mode:lr-tb;text-anchor:start;baseline-shift:baseline;opacity:1;color:#000000;fill:#000000;fill-opacity:1;stroke:none;stroke-width:4;marker:none;visibility:visible;display:inline;overflow:visible;enable-background:accumulate;font-family:Sans;-inkscape-font-specification:Sans" d="M 7.8125,16 C 6.8293323,16.092661 5.9957419,17.012485 6,18 l 0,44 c 1.047e-4,1.047169 0.9528311,1.999895 2,2 l 27.4375,0 -4,16 L 28,80 c -0.06245,-0.0029 -0.125046,-0.0029 -0.1875,0 -1.047341,0.04888 -1.955743,1.046438 -1.906649,2.093769 C 25.954944,83.1411 26.952679,84.049303 28,84 l 34,0 c 1.056625,0.01494 2.028484,-0.943269 2.028484,-2 0,-1.056731 -0.971859,-2.014943 -2.028484,-2 l -3.4375,0 -4,-16 L 66,64 66,82 c 1.05e-4,1.047169 0.952831,1.999895 2,2 l 24,0 c 1.047169,-1.05e-4 1.999895,-0.952831 2,-2 l 0,-44 c -1.05e-4,-1.047169 -0.952831,-1.999895 -2,-2 l -8,0 0,-18 c -1.05e-4,-1.047169 -0.952831,-1.999895 -2,-2 L 8,16 c -0.062454,-0.0029 -0.1250458,-0.0029 -0.1875,0 z M 10,20 l 70,0 0,16 -12,0 c -1.047169,1.05e-4 -1.999895,0.952831 -2,2 l 0,22 -56,0 z m 60,20 20,0 0,2 -20,0 z m 0,6 20,0 0,26 -20,0 z m -30.4375,18 10.875,0 4,16 -18.875,0 z M 70,76 l 20,0 0,4 -20,0 z" transform="translate(0,952.36218)"/></g><text x="0" y="115" fill="#000000" font-size="5px" font-weight="bold" font-family="'Helvetica Neue', Helvetica, Arial-Unicode, Arial, Sans-serif">Created by creative outlet</text><text x="0" y="120" fill="#000000" font-size="5px" font-weight="bold" font-family="'Helvetica Neue', Helvetica, Arial-Unicode, Arial, Sans-serif">from the Noun Project</text></svg>